# xmcd CD database file
#
# Track frame offsets:
#	150
#	20352
#	37201
#	59308
#	75832
#	95734
#	111998
#	135760
#	156473
#	178073
#	185067
#	197386
#
# Disc length: 2951 seconds
#
# Revision: 1
# Processed by: cddbd v1.5.2PL0 Copyright (c) Steve Scherf et al.
# Submitted via: CDex 1.51
#
DISCID=9c0b850c
DTITLE=Grace Potter And The Nocturnals - Nothing But The Water
DYEAR=2005
DGENRE=Blues Rock
TTITLE0=Toothbrush And My Table
TTITLE1=Some Kind Of Ride
TTITLE2=Ragged Company
TTITLE3=Left Behind
TTITLE4=Treat Me Right
TTITLE5=Sweet Hands
TTITLE6=Joey
TTITLE7=2:22
TTITLE8=All But One
TTITLE9=Below The Beams (Instrumental)
TTITLE10=Nothing But The Water (I)
TTITLE11=Nothing But The Water (II)
EXTD=www.gracepotter.com\nRecorded at Goddard College\n YEAR: 2005
EXTT0=
EXTT1=
EXTT2=
EXTT3=
EXTT4=
EXTT5=
EXTT6=
EXTT7=
EXTT8=
EXTT9=
EXTT10=
EXTT11=
PLAYORDER=
